<svg id="line" height="512" viewBox="0 0 64 64" width="512" xmlns="http://www.w3.org/2000/svg"><g fill="#c4a2fc"><path d="m46.13 63h4.85l1.04-30h-5.89z"/><path d="m39.27 63h4.86v-30h-5.9z"/><path d="m61.13 33h-7.13l-1 30h2.4a3 3 0 0 0 3-2.59l3.77-26.27a1 1 0 0 0 -1.04-1.14z"/><path d="m29.13 33a1 1 0 0 0 -1 1.14l3.77 26.27a3 3 0 0 0 3 2.59h2.4l-1-30z"/><path d="m59.62 25.4a4.94 4.94 0 0 0 -4.77-4.77 4.93 4.93 0 0 0 -5.54-3.3 4.92 4.92 0 0 0 -8.37 0 4.94 4.94 0 0 0 -5.54 3.3 4.94 4.94 0 0 0 -4.77 4.77 4.93 4.93 0 0 0 -3.38 4.66 5.76 5.76 0 0 0 .09.94h35.57a5.76 5.76 0 0 0 .09-.94 4.93 4.93 0 0 0 -3.38-4.66z"/></g><path d="m48 1h-44a3 3 0 0 0 -3 3v28a3 3 0 0 0 3 3h44a3 3 0 0 0 3-3v-28a3 3 0 0 0 -3-3zm1 16h-6v-6h6zm-6 2h6v6h-6zm6-15v5h-6v-6h5a1 1 0 0 1 1 1zm-40 13h-6v-6h6zm-6 2h6v6h-6zm0-15a1 1 0 0 1 1-1h5v6h-6zm0 28v-5h6v6h-5a1 1 0 0 1 -1-1zm8-29h30v30h-30zm38 29a1 1 0 0 1 -1 1h-5v-6h6z" fill="#151a6a"/><path d="m32.5 17.13-12-6.92a1 1 0 0 0 -1.5.86v13.86a1 1 0 0 0 1.5.86l12-6.92a1 1 0 0 0 0-1.74zm-11.5 6.07v-10.4l9 5.2z" fill="#151a6a"/><path d="m46 38a5 5 0 0 0 -4 2 5 5 0 0 0 -8 0 5 5 0 0 0 -8 0 5 5 0 0 0 -8 0 5 5 0 0 0 -8 0 5 5 0 0 0 -9 3v3a1 1 0 0 0 1 1h48a1 1 0 0 0 1-1v-3a5 5 0 0 0 -5-5zm-43 5a3 3 0 0 1 6 0v2h-6zm8 0a3 3 0 0 1 6 0v2h-6zm8 0a3 3 0 0 1 6 0v2h-6zm8 0a3 3 0 0 1 6 0v2h-6zm8 0a3 3 0 0 1 6 0v2h-6zm14 2h-6v-2a3 3 0 0 1 6 0z" fill="#151a6a"/></svg>