<svg id="Capa_1" enable-background="new 0 0 512 512" height="512" viewBox="0 0 512 512" width="512" xmlns="http://www.w3.org/2000/svg"><g><g><path d="m46 62c-8.284 0-15 6.716-15 15v45c0 8.284 6.716 15 15 15h30c8.284 0 15-6.716 15-15v-15c0-24.853-20.147-45-45-45z" fill="#f2d1a5"/><g><path d="m421 452v15c0 24.853 20.147 45 45 45 8.284 0 15-6.716 15-15v-45c0-8.284-6.716-15-15-15h-30c-8.284 0-15 6.716-15 15z" fill="#f2bb88"/><path d="m481 332c0-41.355-33.645-75-75-75l-300 .001c-4.141 0-8.025-1.666-10.888-4.681-2.736-2.882-4.112-6.799-4.112-10.773v-119.547h-60v120c0 41.421 33.579 75 75 75h25v180c0 8.284 6.716 15 15 15h220c8.284 0 15-6.716 15-15v-180h25c8.284 0 15 6.716 15 15v120h60z" fill="#9ee2f8"/><path d="m381 497v-180h25c8.284 0 15 6.716 15 15v120h60v-120c0-41.355-33.645-75-75-75h-150v255h110c8.284 0 15-6.716 15-15z" fill="#8cbcff"/><path d="m256 442c-8.284 0-15-6.716-15-15v-130c0-8.284 6.716-15 15-15s15 6.716 15 15v130c0 8.284-6.716 15-15 15z" fill="#8cbcff"/><g><g><path d="m271 427v-130c0-8.284-6.716-15-15-15v160c8.284 0 15-6.716 15-15z" fill="#7c84e8"/></g></g></g></g><path d="m511.419 95.879c-7.718-27.013-32.729-45.879-60.823-45.879h-3.6c-8.284 0-15 6.716-15 15v72.58c-4.695-1.665-9.742-2.58-15-2.58-24.813 0-45 20.187-45 45s20.187 45 45 45 45-20.187 45-45v-97.965c9.775 3.599 17.609 11.696 20.577 22.086 2.276 7.965 10.578 12.581 18.543 10.302 7.967-2.276 12.579-10.578 10.303-18.544z" fill="#ff3c7d"/><path d="m75 367c-8.284 0-15 6.716-15 15v42.58c-4.695-1.665-9.742-2.58-15-2.58-24.813 0-45 20.187-45 45s20.187 45 45 45 45-20.187 45-45v-85c0-8.284-6.716-15-15-15z" fill="#ff80aa"/><path d="m256 322c-4.721 0-9.167-2.223-12-6l-30-40c-1.947-2.597-3-5.755-3-9v-40.79c0-8.284 6.716-15 15-15h60c8.284 0 15 6.716 15 15v40.79c0 3.245-1.053 6.403-3 9l-30 40c-2.833 3.777-7.279 6-12 6z" fill="#f2bb88"/><path d="m286 211.21h-30v110.79c4.721 0 9.167-2.223 12-6l30-40c1.947-2.597 3-5.755 3-9v-40.79c0-8.284-6.716-15-15-15z" fill="#e3a76f"/><g><g><path d="m161 157c0 52.695 43.126 95.507 95.937 94.995 52.3-.507 94.063-43.905 94.063-96.207v-20.788c0-8.284-6.716-15-15-15h-160c-8.284 0-15 6.716-15 15z" fill="#f2d1a5"/><path d="m336 120h-80v131.993c.313 0 .624.006.937.003 52.3-.507 94.063-43.905 94.063-96.207v-20.789c0-8.284-6.716-15-15-15z" fill="#f2bb88"/><path d="m256 0c-45.524 0-83.665 32.189-92.875 75 0 8.284 6.716 15 15 15h155.75c8.284 0 15-6.716 15-15-9.21-42.811-47.351-75-92.875-75z" fill="#bc8173"/><g><g><g><path d="m333.875 90c8.284 0 15-6.716 15-15-9.21-42.811-47.351-75-92.875-75v90z" fill="#865240"/></g></g></g></g><path d="m348.875 75h-185.75c-1.388 6.451-2.125 13.141-2.125 20v40h190v-40c0-6.859-.737-13.549-2.125-20z" fill="#fff5f5"/><path d="m256 75v60h95v-40c0-6.859-.737-13.549-2.125-20z" fill="#e7f1f9"/></g></g></svg>