<svg id="Flat" height="512" viewBox="0 0 512 512" width="512" xmlns="http://www.w3.org/2000/svg"><path d="m40 144a8 8 0 0 1 -8-8v-55a25.028 25.028 0 0 1 25-25h15a8 8 0 0 1 0 16h-15a9.01 9.01 0 0 0 -9 9v55a8 8 0 0 1 -8 8z" fill="#6a7073"/><path d="m472 144a8 8 0 0 1 -8-8v-55a9.01 9.01 0 0 0 -9-9h-15a8 8 0 0 1 0-16h15a25.028 25.028 0 0 1 25 25v55a8 8 0 0 1 -8 8z" fill="#6a7073"/><path d="m96 416h64a0 0 0 0 1 0 0v56a16 16 0 0 1 -16 16h-32a16 16 0 0 1 -16-16v-56a0 0 0 0 1 0 0z" fill="#4f5659"/><path d="m368 416h32a16 16 0 0 1 16 16v56a0 0 0 0 1 0 0h-64a0 0 0 0 1 0 0v-56a16 16 0 0 1 16-16z" fill="#4f5659" transform="matrix(-1 0 0 -1 768 904)"/><rect fill="#3397e8" height="416" rx="32" width="368" x="72" y="24"/><path d="m104 24h304a32 32 0 0 1 32 32v48a0 0 0 0 1 0 0h-368a0 0 0 0 1 0 0v-48a32 32 0 0 1 32-32z" fill="#3397e8"/><path d="m72 104h368v176h-368z" fill="#e9eef2"/><path d="m72 392h120a0 0 0 0 1 0 0v48a0 0 0 0 1 0 0h-88a32 32 0 0 1 -32-32v-16a0 0 0 0 1 0 0z" fill="#6a7073"/><path d="m320 392h120a0 0 0 0 1 0 0v16a32 32 0 0 1 -32 32h-88a0 0 0 0 1 0 0v-48a0 0 0 0 1 0 0z" fill="#6a7073"/><path d="m224 408h64v32h-64z" fill="#e9eef2"/><circle cx="256" cy="336" fill="#e9eef2" r="24"/><path d="m192 392-40-112h-80v112z" fill="#2d85cc"/><path d="m72 344 37.06 12.353a16 16 0 0 1 10.94 15.179v20.468h-48z" fill="#e9eef2"/><path d="m320 392 40-112h80v112z" fill="#2d85cc"/><path d="m440 344-37.06 12.353a16 16 0 0 0 -10.94 15.179v20.468h48z" fill="#e9eef2"/><g fill="#2d85cc"><rect height="80" rx="16" width="48" x="24" y="112"/><rect height="80" rx="16" transform="matrix(-1 0 0 -1 928 304)" width="48" x="440" y="112"/></g></svg>