<svg id="Capa_1" enable-background="new 0 0 512 512" height="512" viewBox="0 0 512 512" width="512" xmlns="http://www.w3.org/2000/svg"><g><g><path clip-rule="evenodd" d="m30.196 300.074h104.773v-38.025c0-28.844-23.566-52.418-52.372-52.418-28.835 0-52.401 23.574-52.401 52.418z" fill="#ff7b79" fill-rule="evenodd"/></g><g><path clip-rule="evenodd" d="m50.448 392.273h64.269 26.654c7.591 0 13.794-6.205 13.794-13.799v-64.602c0-3.853-1.615-7.367-4.192-9.889-2.464-2.408-5.863-3.91-9.602-3.91h-6.401-104.774-6.401c-7.591 0-13.794 6.205-13.794 13.799v64.602c0 7.594 6.203 13.799 13.794 13.799z" fill="#ffe6b4" fill-rule="evenodd"/></g><g><path clip-rule="evenodd" d="m192.779 139.306c68.659-62.165 112.761 0 207.393 0v-23.574c.001-57.066-46.678-103.732-103.696-103.732s-103.697 46.666-103.697 103.732z" fill="#ffcd69" fill-rule="evenodd"/></g><g><path clip-rule="evenodd" d="m50.448 467.869c0 17.681 14.474 32.131 32.148 32.131 17.646 0 32.12-14.45 32.12-32.131v-5.185-70.41h-64.268z" fill="#ebddd9" fill-rule="evenodd"/></g><g><path clip-rule="evenodd" d="m114.716 462.684h144.768l18.553-74.746-12.661-43.72-.538 1.105-65.118-60.097c-19.544 5.78-35.576 11.9-48.747 18.757 2.578 2.522 4.192 6.035 4.192 9.889v64.602c0 7.594-6.203 13.799-13.794 13.799h-26.654v70.411z" fill="#ff7b79" fill-rule="evenodd"/></g><g><path clip-rule="evenodd" d="m199.719 285.227 65.118 60.097.538-1.105 31.1-62.42c-8.271 0-16.542-1.757-25.974-5.299-16.966-6.319-32.715-17.539-45.546-31.139z" fill="#ebddd9" fill-rule="evenodd"/></g><g><path clip-rule="evenodd" d="m278.037 387.938h36.878l12.662-43.719-31.101-62.421-31.101 62.421z" fill="#ffcd69" fill-rule="evenodd"/></g><g><path clip-rule="evenodd" d="m328.143 345.324 65.09-60.097-25.237-39.866c-12.859 13.629-28.665 24.877-45.688 31.196-9.375 3.485-17.618 5.242-25.832 5.242l31.101 62.42z" fill="#ebddd9" fill-rule="evenodd"/></g><g><path clip-rule="evenodd" d="m381.563 462.684h71.945v-29.156c0-9.889-8.073-17.992-17.986-17.992h-35.972c-9.885 0-17.986 8.104-17.986 17.992v29.156z" fill="#ffe6b4" fill-rule="evenodd"/></g><g><path clip-rule="evenodd" d="m259.484 462.684h73.984l-18.553-74.746h-36.878z" fill="#ffcd69" fill-rule="evenodd"/></g><g><path clip-rule="evenodd" d="m270.502 276.5c9.432 3.542 17.703 5.299 25.974 5.299 8.214 0 16.457-1.757 25.832-5.242 17.023-6.319 32.828-17.567 45.688-31.196 19.459-20.599 32.177-46.638 32.177-69.192v-36.863c-94.633 0-138.734-62.165-207.393 0v36.863c0 22.554 12.718 48.593 32.177 69.192 12.83 13.6 28.579 24.82 45.545 31.139z" fill="#ffdcd5" fill-rule="evenodd"/></g><g><path clip-rule="evenodd" d="m381.563 433.528c0-9.889 8.101-17.992 17.986-17.992h35.972c9.914 0 17.986 8.104 17.986 17.992v29.156h48.493c0-107.953-6.826-147.281-108.767-177.457l-65.09 60.097-.566-1.105-12.661 43.72 18.553 74.746h48.095v-29.157z" fill="#ff7b79" fill-rule="evenodd"/></g><g><path d="m494.668 340.084c-15.498-29.066-43.153-47.559-94.978-63.354l-19.223-30.365c18.057-21.215 29.706-46.866 29.706-70.197v-60.437c0-62.711-51.005-113.731-113.697-113.731s-113.697 51.02-113.697 113.731v60.437c0 23.306 11.655 48.959 29.715 70.181l-19.228 30.374c-16.227 4.943-29.913 10.117-41.561 15.716-2.094-1.014-4.358-1.731-6.737-2.093v-28.297c0-34.417-27.98-62.418-62.373-62.418-34.408 0-62.401 28.001-62.401 62.418v28.297c-11.417 1.74-20.194 11.627-20.194 23.527v64.602c0 13.123 10.674 23.799 23.794 23.799h16.654v65.596c0 23.23 18.907 42.13 42.148 42.13 21.597 0 39.439-16.345 41.837-37.316h14.388c5.523 0 10-4.477 10-10s-4.477-10-10-10h-14.104v-50.411h16.654c13.12 0 23.794-10.676 23.794-23.799v-64.602c0-1.84-.217-3.629-.614-5.35 9.333-4.208 20.109-8.196 32.593-12.065l60.048 55.418 10.493 36.261-16.022 64.547h-23.11c-5.523 0-10 4.477-10 10s4.477 10 10 10h104.849c.019 0 .038.002.058.002.013 0 .027-.002.04-.002h168.5c5.522 0 10-4.477 10-10 0-52.753-1.243-92.427-17.332-122.599zm-209.115 37.854-9.477-32.751 20.403-40.966 20.42 40.963-9.497 32.753h-21.849zm45.595-49-19.362-38.84c4.498-.975 9.123-2.351 14.002-4.167 14.489-5.378 28.26-14.102 40.322-24.856l14.217 22.457zm-34.672-306.938c51.665 0 93.697 42.048 93.697 93.731v13.307c-29.074-1.43-53.474-8.803-75.248-15.405-38.439-11.655-72.268-21.903-112.146 5.045v-2.947c0-51.683 42.032-93.731 93.697-93.731zm-93.697 121.827c37.351-31.965 65.036-23.577 106.343-11.053 23.176 7.027 49.177 14.881 81.051 16.288v27.107c0 20.255-11.579 43.334-28.862 61.768-.393.353-.755.731-1.081 1.134-11.852 12.341-26.255 22.49-41.409 28.114-16.527 6.15-28.256 6.136-44.822-.053-15.14-5.651-29.53-15.823-41.367-28.178-.272-.326-.57-.633-.887-.926-17.339-18.458-28.966-41.59-28.966-61.858zm-120.183 75.804c23.364 0 42.373 19.029 42.373 42.418v28.024h-84.774v-28.024c0-23.389 19.021-42.418 42.401-42.418zm22.12 248.238c0 12.203-9.923 22.131-22.12 22.131-12.213 0-22.148-9.928-22.148-22.131v-65.596h44.269v65.596zm40.448-89.394c0 2.059-1.737 3.799-3.794 3.799h-117.576c-2.057 0-3.794-1.74-3.794-3.799v-64.602c0-2.059 1.737-3.799 3.794-3.799h117.576c2.057 0 3.794 1.74 3.794 3.799zm81.686-117.411c12.017 10.718 25.728 19.42 40.152 24.804 4.941 1.846 9.62 3.243 14.169 4.23l-19.344 38.84-49.199-45.406zm59.008 136.874h21.235l13.589 54.746h-48.412zm157.65 54.746h-51.944v-19.156c0-4.332 3.657-7.992 7.986-7.992h35.972c4.403 0 7.986 3.585 7.986 7.992zm20 0v-19.156c0-15.435-12.555-27.992-27.986-27.992h-35.972c-15.432 0-27.986 12.557-27.986 27.992v19.156h-30.275l-16.021-64.543 10.514-36.261 60.026-55.421c44.936 13.922 68.651 29.477 81.212 53.035 12.904 24.201 14.762 59.578 14.959 103.19z"/><path d="m183.687 452.684c-5.523 0-10 4.477-10 10s4.477 10 10 10h.028c5.523 0 9.986-4.477 9.986-10s-4.491-10-10.014-10z"/></g></g></svg>