<svg height="512" viewBox="0 0 64 64" width="512" xmlns="http://www.w3.org/2000/svg"><g id="flat"><path d="m50.743 44.983a19.046 19.046 0 0 0 .257-2.983 19.484 19.484 0 0 0 -15-19v-16h1a2 2 0 0 0 0-4h-10a2 2 0 0 0 0 4h1v16a19.484 19.484 0 0 0 -15 19 18.969 18.969 0 0 0 .266 2.977l19.539 6z" fill="#ececec"/><path d="m50.743 44.983c-.826.011-1.595.017-1.743.017-4.169 0-4.831-4-9-4s-3.843 4-8.009 4-3.824-4-7.991-4-4.834 4-9 4c-.145 0-.907-.013-1.734-.023a18.969 18.969 0 0 0 37.477.006z" fill="#f9bb4b"/><path d="m23 47h6v6h-6z" fill="#f4f4e6"/><g fill="#394d5c"><path d="m32 52h8v2h-8z"/><path d="m32 46h8v2h-8z"/><path d="m32 40h8v2h-8z"/><path d="m32 34h8v2h-8z"/></g><path d="m22 32h2v2h-2z" fill="#96c3f0"/><path d="m26 35h2v2h-2z" fill="#96c3f0"/></g></svg>