<?xml version="1.0" encoding="iso-8859-1"?>
<!-- Generator: Adobe Illustrator 19.0.0, SVG Export Plug-In . SVG Version: 6.00 Build 0)  -->
<svg version="1.1" id="Capa_1" xmlns="http://www.w3.org/2000/svg" xmlns:xlink="http://www.w3.org/1999/xlink" x="0px" y="0px"
	 viewBox="0 0 512 512" style="enable-background:new 0 0 512 512;" xml:space="preserve">
<polygon style="fill:#7BCC92;" points="219.879,0 198.431,12.383 198.252,221.561 15.908,326.836 15.978,351.483 292.191,512 
	495.983,394.341 496.092,160.517 "/>
<polygon style="fill:#94D6A8;" points="292.191,512 15.978,351.483 15.908,326.836 292.121,487.354 "/>
<polygon style="fill:#ADDFBA;" points="292.121,487.354 15.908,326.836 198.252,221.561 474.642,382.078 "/>
<polygon style="fill:#D2EDDA;" points="186.884,418.431 110.466,374.022 160.914,344.896 237.381,389.305 "/>
<polygon style="fill:#94D6A8;" points="474.642,382.078 198.252,221.561 198.431,12.383 474.642,172.901 "/>
<polygon style="fill:#D2EDDA;" points="453.993,345.787 218.902,209.239 219.053,54.401 453.993,190.934 "/>
<polygon style="fill:#ADDFBA;" points="474.642,172.901 198.431,12.383 219.879,0 496.092,160.517 "/>
<polygon style="fill:#7BCC92;" points="496.092,160.517 495.983,394.341 292.191,512 292.121,487.354 474.642,382.078 
	474.642,172.901 "/>
<path style="fill:#40A559;" d="M415.628,354.701l-3.804,2.211l0.013-4.4l-18.974-10.955l-3.804,2.211l0.013-4.4l-18.973-10.955
	l-3.804,2.211l0.013-4.4l-18.973-10.955l-3.804,2.211l0.013-4.401l-18.973-10.955l-3.804,2.211l0.013-4.4l-18.973-10.955
	l-3.804,2.211l0.013-4.4l-18.973-10.955l-3.808,2.213l0.013-4.404l-18.974-10.955l-3.804,2.211l0.013-4.4l-18.973-10.955
	l-3.804,2.211l0.013-4.4l-18.973-10.955l-17.853,10.375l-0.013,4.357l-3.755-2.168l-17.857,10.377l-0.013,4.357l-3.755-2.168
	l-17.854,10.376l-0.013,4.357l-3.755-2.168l-17.853,10.375l-0.013,4.358l-3.755-2.168l-17.853,10.375l-0.025,8.715l18.973,10.955
	l3.804-2.211l-0.013,4.4l18.973,10.955l3.804-2.211l-0.013,4.4l18.974,10.955l3.808-2.213l-0.013,4.404l18.973,10.955l3.804-2.211
	l-0.013,4.4l18.973,10.955l3.804-2.211l-0.013,4.4l18.973,10.955l3.804-2.211l-0.013,4.401l18.973,10.955l3.804-2.211l-0.013,4.4
	l18.973,10.955l3.804-2.211l-0.013,4.4l18.974,10.955l3.804-2.211l-0.013,4.4l18.973,10.955l17.853-10.375l0.013-4.358l3.755,2.168
	l17.853-10.375l0.013-4.357l3.755,2.168l17.854-10.376l0.013-4.357l3.755,2.168l17.856-10.377l0.013-4.357l3.755,2.168
	l17.853-10.375l0.025-8.715L415.628,354.701z M397.726,369.413l0.037-0.021v0.042L397.726,369.413z M376.102,381.98l0.037-0.021
	v0.042L376.102,381.98z M354.482,394.544l0.037-0.021v0.042L354.482,394.544z M332.861,407.108l0.037-0.021v0.043L332.861,407.108z
	 M353.337,368.835l0.037-0.021v0.042L353.337,368.835z M331.716,381.4l0.037-0.021v0.042L331.716,381.4z M308.95,368.256
	l0.037-0.021v0.042L308.95,368.256z M286.185,355.113l0.037-0.021v0.043L286.185,355.113z M263.419,341.969l0.037-0.021v0.042
	L263.419,341.969z M240.654,328.826l0.037-0.021v0.042L240.654,328.826z M217.885,315.68l0.04-0.023v0.046L217.885,315.68z
	 M195.119,302.536l0.037-0.021v0.042L195.119,302.536z M187.633,302.579l-0.037,0.021v-0.042L187.633,302.579z M345.813,368.857
	l0.037,0.021l-0.037,0.021V368.857z M330.572,355.692l0.037-0.021v0.042L330.572,355.692z M323.048,355.755v-0.042l0.037,0.021
	L323.048,355.755z M307.806,342.548l0.037-0.021v0.043L307.806,342.548z M300.283,342.613v-0.043l0.037,0.021L300.283,342.613z
	 M285.04,329.405l0.037-0.021v0.042L285.04,329.405z M277.517,329.468v-0.042l0.037,0.021L277.517,329.468z M262.275,316.261
	l0.037-0.021v0.042L262.275,316.261z M254.752,316.325v-0.042l0.037,0.021L254.752,316.325z M239.506,303.115l0.04-0.023v0.046
	L239.506,303.115z M231.983,303.183v-0.046l0.04,0.023L231.983,303.183z M216.74,289.972l0.037-0.021v0.042L216.74,289.972z
	 M209.217,290.035v-0.042l0.037,0.021L209.217,290.035z M210.402,315.725l-0.04,0.023v-0.046L210.402,315.725z M233.167,328.869
	l-0.037,0.021v-0.042L233.167,328.869z M255.933,342.012l-0.037,0.021v-0.042L255.933,342.012z M278.698,355.156l-0.037,0.021
	v-0.043L278.698,355.156z M301.463,368.299l-0.037,0.021v-0.042L301.463,368.299z M324.229,381.443l-0.037,0.021v-0.042
	L324.229,381.443z M194.011,276.849l-0.037-0.021l0.037-0.021V276.849z M172.39,289.414l-0.037-0.021l0.037-0.021V289.414z
	 M346.959,394.566l0.037,0.021l-0.037,0.021V394.566z M368.579,382.001l0.037,0.021l-0.037,0.021V382.001z M390.203,369.435
	l0.037,0.021l-0.037,0.021V369.435z M374.997,356.29l-0.037-0.021l0.037-0.021V356.29z M367.437,356.333v-0.042l0.037,0.021
	L367.437,356.333z M352.231,343.147l-0.037-0.021l0.037-0.021V343.147z M344.672,343.19v-0.042l0.037,0.021L344.672,343.19z
	 M329.466,330.003l-0.037-0.021l0.037-0.021V330.003z M321.907,330.046v-0.043l0.037,0.021L321.907,330.046z M306.7,316.859
	l-0.037-0.021l0.037-0.021V316.859z M299.141,316.902v-0.042l0.037,0.021L299.141,316.902z M283.934,303.715l-0.037-0.021
	l0.037-0.021V303.715z M276.376,303.758v-0.042l0.037,0.021L276.376,303.758z M261.17,290.572l-0.04-0.023l0.04-0.023V290.572z
	 M253.607,290.616v-0.046l0.04,0.023L253.607,290.616z M238.4,277.426l-0.037-0.021l0.037-0.021V277.426z M230.841,277.469v-0.042
	l0.037,0.021L230.841,277.469z M215.635,264.282l-0.037-0.021l0.037-0.021V264.282z M208.075,264.325v-0.042l0.037,0.021
	L208.075,264.325z M186.451,276.892v-0.042l0.037,0.021L186.451,276.892z M164.83,289.457v-0.042l0.037,0.021L164.83,289.457z
	 M143.21,302.021v-0.043l0.037,0.021L143.21,302.021z M150.769,301.936v0.043l-0.037-0.021L150.769,301.936z M166.012,315.143
	l-0.037,0.021v-0.043L166.012,315.143z M173.535,315.079v0.043l-0.037-0.021L173.535,315.079z M188.781,328.289l-0.041,0.023v-0.047
	L188.781,328.289z M196.304,328.221v0.046l-0.04-0.023L196.304,328.221z M211.546,341.433l-0.037,0.021v-0.043L211.546,341.433z
	 M219.07,341.368v0.043l-0.037-0.021L219.07,341.368z M234.312,354.577l-0.037,0.021v-0.043L234.312,354.577z M241.835,354.512
	v0.043l-0.037-0.021L241.835,354.512z M257.078,367.72l-0.038,0.022V367.7L257.078,367.72z M264.601,367.656v0.043l-0.037-0.021
	L264.601,367.656z M279.843,380.864l-0.037,0.021v-0.043L279.843,380.864z M287.366,380.8v0.043l-0.037-0.021L287.366,380.8z
	 M302.609,394.008l-0.037,0.021v-0.043L302.609,394.008z M310.132,393.944v0.043l-0.037-0.021L310.132,393.944z M325.374,407.151
	l-0.037,0.021v-0.043L325.374,407.151z"/>
<g style="enable-background:new    ;">
	<polygon style="fill:#40A559;" points="229.708,247.36 229.683,256.076 211.83,266.451 211.855,257.736 	"/>
	<polygon style="fill:#4DBA69;" points="211.855,257.736 211.83,266.451 192.857,255.497 192.881,246.782 	"/>
	<polygon style="fill:#65C27C;" points="192.881,246.782 210.735,236.407 229.708,247.36 211.855,257.736 	"/>
</g>
<g style="enable-background:new    ;">
	<polygon style="fill:#40A559;" points="252.473,260.504 252.449,269.219 234.596,279.595 234.62,270.88 	"/>
	<polygon style="fill:#4DBA69;" points="234.62,270.88 234.596,279.595 215.622,268.64 215.647,259.925 	"/>
	<polygon style="fill:#65C27C;" points="215.647,259.925 233.5,249.55 252.473,260.504 234.62,270.88 	"/>
	<polygon style="fill:#40A559;" points="275.239,273.649 275.215,282.364 257.362,292.739 257.386,284.023 	"/>
	<polygon style="fill:#4DBA69;" points="257.386,284.023 257.362,292.739 238.388,281.784 238.412,273.069 	"/>
	<polygon style="fill:#65C27C;" points="238.412,273.069 256.266,262.694 275.239,273.649 257.386,284.023 	"/>
	<polygon style="fill:#40A559;" points="298.008,286.794 297.984,295.51 280.13,305.884 280.155,297.169 	"/>
	<polygon style="fill:#4DBA69;" points="280.155,297.169 280.13,305.884 261.157,294.93 261.182,286.214 	"/>
	<polygon style="fill:#65C27C;" points="261.182,286.214 279.035,275.84 298.008,286.794 280.155,297.169 	"/>
	<polygon style="fill:#40A559;" points="320.774,299.938 320.749,308.653 302.896,319.028 302.921,310.313 	"/>
	<polygon style="fill:#4DBA69;" points="302.921,310.313 302.896,319.028 283.922,308.073 283.947,299.358 	"/>
	<polygon style="fill:#65C27C;" points="283.947,299.358 301.8,288.983 320.774,299.938 302.921,310.313 	"/>
	<polygon style="fill:#40A559;" points="343.539,313.081 343.515,321.797 325.661,332.171 325.686,323.456 	"/>
	<polygon style="fill:#4DBA69;" points="325.686,323.456 325.661,332.171 306.688,321.217 306.713,312.502 	"/>
	<polygon style="fill:#65C27C;" points="306.713,312.502 324.566,302.127 343.539,313.081 325.686,323.456 	"/>
	<polygon style="fill:#40A559;" points="366.305,326.225 366.281,334.94 348.427,345.315 348.452,336.6 	"/>
	<polygon style="fill:#4DBA69;" points="348.452,336.6 348.427,345.315 329.454,334.362 329.479,325.646 	"/>
	<polygon style="fill:#65C27C;" points="329.479,325.646 347.332,315.27 366.305,326.225 348.452,336.6 	"/>
	<polygon style="fill:#40A559;" points="389.071,339.369 389.045,348.084 371.193,358.459 371.217,349.743 	"/>
	<polygon style="fill:#4DBA69;" points="371.217,349.743 371.193,358.459 352.219,347.505 352.244,338.79 	"/>
	<polygon style="fill:#65C27C;" points="352.244,338.79 370.096,328.414 389.071,339.369 371.217,349.743 	"/>
	<polygon style="fill:#40A559;" points="411.836,352.512 411.811,361.228 393.958,371.603 393.983,362.888 	"/>
	<polygon style="fill:#4DBA69;" points="393.983,362.888 393.958,371.603 374.984,360.649 375.01,351.933 	"/>
	<polygon style="fill:#65C27C;" points="375.01,351.933 392.862,341.558 411.836,352.512 393.983,362.888 	"/>
	<polygon style="fill:#40A559;" points="434.601,365.656 434.576,374.371 416.723,384.747 416.748,376.031 	"/>
	<polygon style="fill:#4DBA69;" points="416.748,376.031 416.723,384.747 397.75,373.792 397.774,365.077 	"/>
	<polygon style="fill:#65C27C;" points="415.628,354.701 434.601,365.656 416.748,376.031 397.774,365.077 	"/>
	<polygon style="fill:#40A559;" points="208.087,259.925 208.063,268.64 190.206,279.017 190.231,270.302 	"/>
	<polygon style="fill:#4DBA69;" points="190.231,270.302 190.206,279.017 171.233,268.064 171.257,259.348 	"/>
	<polygon style="fill:#65C27C;" points="171.257,259.348 189.114,248.971 208.087,259.925 190.231,270.302 	"/>
	<polygon style="fill:#40A559;" points="230.853,273.069 230.828,281.784 212.972,292.161 212.996,283.445 	"/>
	<polygon style="fill:#4DBA69;" points="212.996,283.445 212.972,292.161 193.998,281.207 194.023,272.492 	"/>
	<polygon style="fill:#65C27C;" points="194.023,272.492 211.879,262.114 230.853,273.069 212.996,283.445 	"/>
	<polygon style="fill:#40A559;" points="253.619,286.212 253.594,294.928 235.737,305.305 235.762,296.59 	"/>
	<polygon style="fill:#4DBA69;" points="235.762,296.59 235.737,305.305 216.764,294.351 216.788,285.635 	"/>
	<polygon style="fill:#65C27C;" points="216.788,285.635 234.645,275.258 253.619,286.212 235.762,296.59 	"/>
	<polygon style="fill:#40A559;" points="276.388,299.358 276.363,308.073 258.506,318.451 258.531,309.736 	"/>
	<polygon style="fill:#4DBA69;" points="258.531,309.736 258.506,318.451 239.533,307.497 239.558,298.781 	"/>
	<polygon style="fill:#65C27C;" points="239.558,298.781 257.414,288.403 276.388,299.358 258.531,309.736 	"/>
	<polygon style="fill:#40A559;" points="299.153,312.502 299.128,321.217 281.272,331.595 281.297,322.879 	"/>
	<polygon style="fill:#4DBA69;" points="281.297,322.879 281.272,331.595 262.298,320.64 262.323,311.925 	"/>
	<polygon style="fill:#65C27C;" points="262.323,311.925 280.18,301.548 299.153,312.502 281.297,322.879 	"/>
	<polygon style="fill:#40A559;" points="321.919,325.645 321.894,334.36 304.037,344.738 304.062,336.023 	"/>
	<polygon style="fill:#4DBA69;" points="304.062,336.023 304.037,344.738 285.064,333.784 285.089,325.068 	"/>
	<polygon style="fill:#65C27C;" points="285.089,325.068 302.945,314.692 321.919,325.645 304.062,336.023 	"/>
	<polygon style="fill:#40A559;" points="344.684,338.79 344.66,347.505 326.803,357.882 326.828,349.166 	"/>
	<polygon style="fill:#4DBA69;" points="326.828,349.166 326.803,357.882 307.83,346.927 307.854,338.212 	"/>
	<polygon style="fill:#65C27C;" points="307.854,338.212 325.711,327.835 344.684,338.79 326.828,349.166 	"/>
	<polygon style="fill:#40A559;" points="367.45,351.933 367.425,360.649 349.569,371.025 349.593,362.31 	"/>
	<polygon style="fill:#4DBA69;" points="349.593,362.31 349.569,371.025 330.595,360.071 330.62,351.355 	"/>
	<polygon style="fill:#65C27C;" points="330.62,351.355 348.477,340.979 367.45,351.933 349.593,362.31 	"/>
	<polygon style="fill:#40A559;" points="390.216,365.077 390.191,373.792 372.335,384.169 372.359,375.454 	"/>
	<polygon style="fill:#4DBA69;" points="372.359,375.454 372.335,384.169 353.361,373.214 353.386,364.499 	"/>
	<polygon style="fill:#65C27C;" points="353.386,364.499 371.242,354.122 390.216,365.077 372.359,375.454 	"/>
	<polygon style="fill:#40A559;" points="412.981,378.22 412.957,386.936 395.099,397.313 395.125,388.597 	"/>
	<polygon style="fill:#4DBA69;" points="395.125,388.597 395.099,397.313 376.127,386.359 376.151,377.643 	"/>
	<polygon style="fill:#65C27C;" points="376.151,377.643 394.008,367.266 412.981,378.22 395.125,388.597 	"/>
	<polygon style="fill:#40A559;" points="186.464,272.492 186.44,281.207 168.586,291.582 168.611,282.867 	"/>
	<polygon style="fill:#4DBA69;" points="168.611,282.867 168.586,291.582 149.613,280.628 149.637,271.913 	"/>
	<polygon style="fill:#65C27C;" points="149.637,271.913 167.491,261.537 186.464,272.492 168.611,282.867 	"/>
	<polygon style="fill:#40A559;" points="209.229,285.635 209.204,294.351 191.352,304.725 191.376,296.01 	"/>
	<polygon style="fill:#4DBA69;" points="191.376,296.01 191.352,304.725 172.377,293.772 172.403,285.057 	"/>
	<polygon style="fill:#65C27C;" points="172.403,285.057 190.255,274.681 209.229,285.635 191.376,296.01 	"/>
	<polygon style="fill:#40A559;" points="231.995,298.779 231.97,307.494 214.116,317.87 214.141,309.155 	"/>
	<polygon style="fill:#4DBA69;" points="214.141,309.155 214.116,317.87 195.143,306.916 195.167,298.2 	"/>
	<polygon style="fill:#65C27C;" points="195.167,298.2 213.021,287.825 231.995,298.779 214.141,309.155 	"/>
	<polygon style="fill:#40A559;" points="254.763,311.925 254.739,320.64 236.885,331.016 236.91,322.3 	"/>
	<polygon style="fill:#4DBA69;" points="236.91,322.3 236.885,331.016 217.912,320.061 217.936,311.346 	"/>
	<polygon style="fill:#65C27C;" points="217.936,311.346 235.79,300.97 254.763,311.925 236.91,322.3 	"/>
	<polygon style="fill:#40A559;" points="277.529,325.068 277.504,333.784 259.651,344.159 259.675,335.444 	"/>
	<polygon style="fill:#4DBA69;" points="259.675,335.444 259.651,344.159 240.677,333.205 240.702,324.489 	"/>
	<polygon style="fill:#65C27C;" points="240.702,324.489 258.556,314.114 277.529,325.068 259.675,335.444 	"/>
	<polygon style="fill:#40A559;" points="300.295,338.212 300.27,346.927 282.416,357.303 282.441,348.588 	"/>
	<polygon style="fill:#4DBA69;" points="282.441,348.588 282.416,357.303 263.443,346.348 263.468,337.633 	"/>
	<polygon style="fill:#65C27C;" points="263.468,337.633 281.321,327.257 300.295,338.212 282.441,348.588 	"/>
	<polygon style="fill:#40A559;" points="323.06,351.355 323.036,360.071 305.182,370.447 305.207,361.731 	"/>
	<polygon style="fill:#4DBA69;" points="305.207,361.731 305.182,370.447 286.209,359.492 286.233,350.777 	"/>
	<polygon style="fill:#65C27C;" points="286.233,350.777 304.087,340.401 323.06,351.355 305.207,361.731 	"/>
	<polygon style="fill:#40A559;" points="345.826,364.499 345.801,373.214 327.948,383.59 327.972,374.875 	"/>
	<polygon style="fill:#4DBA69;" points="327.972,374.875 327.948,383.59 308.974,372.636 308.999,363.92 	"/>
	<polygon style="fill:#65C27C;" points="308.999,363.92 326.853,353.545 345.826,364.499 327.972,374.875 	"/>
	<polygon style="fill:#40A559;" points="368.592,377.643 368.567,386.359 350.714,396.734 350.738,388.018 	"/>
	<polygon style="fill:#4DBA69;" points="350.738,388.018 350.714,396.734 331.74,385.779 331.764,377.064 	"/>
	<polygon style="fill:#65C27C;" points="331.764,377.064 349.618,366.689 368.592,377.643 350.738,388.018 	"/>
	<polygon style="fill:#40A559;" points="391.357,390.787 391.333,399.503 373.479,409.877 373.504,401.162 	"/>
	<polygon style="fill:#4DBA69;" points="373.504,401.162 373.479,409.877 354.506,398.923 354.53,390.207 	"/>
	<polygon style="fill:#65C27C;" points="354.53,390.207 372.384,379.833 391.357,390.787 373.504,401.162 	"/>
	<polygon style="fill:#40A559;" points="164.843,285.057 164.818,293.772 146.965,304.147 146.99,295.431 	"/>
	<polygon style="fill:#4DBA69;" points="146.99,295.431 146.965,304.147 127.992,293.192 128.016,284.477 	"/>
	<polygon style="fill:#65C27C;" points="128.016,284.477 145.87,274.102 164.843,285.057 146.99,295.431 	"/>
	<polygon style="fill:#40A559;" points="187.609,298.2 187.584,306.916 169.731,317.29 169.755,308.575 	"/>
	<polygon style="fill:#4DBA69;" points="169.755,308.575 169.731,317.29 150.757,306.336 150.782,297.62 	"/>
	<polygon style="fill:#65C27C;" points="150.782,297.62 168.635,287.246 187.609,298.2 169.755,308.575 	"/>
	<polygon style="fill:#40A559;" points="210.375,311.344 210.35,320.059 192.497,330.434 192.521,321.718 	"/>
	<polygon style="fill:#4DBA69;" points="192.521,321.718 192.497,330.434 173.523,319.479 173.547,310.764 	"/>
	<polygon style="fill:#65C27C;" points="173.547,310.764 191.401,300.389 210.375,311.344 192.521,321.718 	"/>
	<polygon style="fill:#40A559;" points="233.143,324.489 233.119,333.205 215.266,343.579 215.29,334.864 	"/>
	<polygon style="fill:#4DBA69;" points="215.29,334.864 215.266,343.579 196.292,332.626 196.317,323.91 	"/>
	<polygon style="fill:#65C27C;" points="196.317,323.91 214.17,313.535 233.143,324.489 215.29,334.864 	"/>
	<polygon style="fill:#40A559;" points="255.909,337.633 255.883,346.348 238.031,356.723 238.056,348.008 	"/>
	<polygon style="fill:#4DBA69;" points="238.056,348.008 238.031,356.723 219.058,345.77 219.082,337.054 	"/>
	<polygon style="fill:#65C27C;" points="219.082,337.054 236.935,326.678 255.909,337.633 238.056,348.008 	"/>
	<polygon style="fill:#40A559;" points="278.673,350.777 278.649,359.492 260.797,369.867 260.821,361.151 	"/>
	<polygon style="fill:#4DBA69;" points="260.821,361.151 260.797,369.867 241.822,358.913 241.848,350.198 	"/>
	<polygon style="fill:#65C27C;" points="241.848,350.198 259.7,339.822 278.673,350.777 260.821,361.151 	"/>
	<polygon style="fill:#40A559;" points="301.439,363.92 301.415,372.636 283.561,383.011 283.586,374.296 	"/>
	<polygon style="fill:#4DBA69;" points="283.586,374.296 283.561,383.011 264.588,372.057 264.613,363.341 	"/>
	<polygon style="fill:#65C27C;" points="264.613,363.341 282.466,352.966 301.439,363.92 283.586,374.296 	"/>
	<polygon style="fill:#40A559;" points="324.205,377.064 324.18,385.779 306.327,396.155 306.352,387.439 	"/>
	<polygon style="fill:#4DBA69;" points="306.352,387.439 306.327,396.155 287.354,385.2 287.378,376.485 	"/>
	<polygon style="fill:#65C27C;" points="287.378,376.485 305.231,366.109 324.205,377.064 306.352,387.439 	"/>
	<polygon style="fill:#40A559;" points="346.971,390.207 346.946,398.923 329.093,409.298 329.118,400.583 	"/>
	<polygon style="fill:#4DBA69;" points="329.118,400.583 329.093,409.298 310.119,398.344 310.144,389.629 	"/>
	<polygon style="fill:#65C27C;" points="310.144,389.629 327.997,379.253 346.971,390.207 329.118,400.583 	"/>
	<polygon style="fill:#40A559;" points="369.736,403.351 369.712,412.067 351.858,422.442 351.883,413.727 	"/>
	<polygon style="fill:#4DBA69;" points="351.883,413.727 351.858,422.442 332.885,411.487 332.91,402.772 	"/>
	<polygon style="fill:#65C27C;" points="332.91,402.772 350.763,392.397 369.736,403.351 351.883,413.727 	"/>
	<polygon style="fill:#40A559;" points="143.222,297.621 143.197,306.337 125.344,316.711 125.369,307.996 	"/>
	<polygon style="fill:#4DBA69;" points="125.369,307.996 125.344,316.711 106.371,305.757 106.395,297.041 	"/>
	<polygon style="fill:#65C27C;" points="106.395,297.041 124.249,286.667 143.222,297.621 125.369,307.996 	"/>
	<polygon style="fill:#40A559;" points="165.988,310.765 165.963,319.48 148.11,329.855 148.134,321.14 	"/>
	<polygon style="fill:#4DBA69;" points="148.134,321.14 148.11,329.855 129.136,318.9 129.161,310.185 	"/>
	<polygon style="fill:#65C27C;" points="129.161,310.185 147.014,299.81 165.988,310.765 148.134,321.14 	"/>
	<polygon style="fill:#40A559;" points="188.753,323.909 188.729,332.624 170.876,342.999 170.9,334.283 	"/>
	<polygon style="fill:#4DBA69;" points="170.9,334.283 170.876,342.999 151.902,332.044 151.926,323.329 	"/>
	<polygon style="fill:#65C27C;" points="151.926,323.329 169.78,312.954 188.753,323.909 170.9,334.283 	"/>
	<polygon style="fill:#40A559;" points="211.522,337.054 211.498,345.77 193.644,356.144 193.669,347.429 	"/>
	<polygon style="fill:#4DBA69;" points="193.669,347.429 193.644,356.144 174.671,345.19 174.696,336.474 	"/>
	<polygon style="fill:#65C27C;" points="174.696,336.474 192.549,326.1 211.522,337.054 193.669,347.429 	"/>
	<polygon style="fill:#40A559;" points="234.288,350.198 234.263,358.913 216.41,369.288 216.435,360.572 	"/>
	<polygon style="fill:#4DBA69;" points="216.435,360.572 216.41,369.288 197.437,358.333 197.461,349.618 	"/>
	<polygon style="fill:#65C27C;" points="197.461,349.618 215.314,339.243 234.288,350.198 216.435,360.572 	"/>
	<polygon style="fill:#40A559;" points="257.053,363.341 257.029,372.057 239.175,382.431 239.2,373.716 	"/>
	<polygon style="fill:#4DBA69;" points="239.2,373.716 239.175,382.431 220.202,371.478 220.227,362.761 	"/>
	<polygon style="fill:#65C27C;" points="220.227,362.761 238.08,352.387 257.053,363.341 239.2,373.716 	"/>
	<polygon style="fill:#40A559;" points="279.819,376.485 279.795,385.2 261.941,395.576 261.966,386.86 	"/>
	<polygon style="fill:#4DBA69;" points="261.966,386.86 261.941,395.576 242.968,384.621 242.993,375.906 	"/>
	<polygon style="fill:#65C27C;" points="242.993,375.906 260.846,365.53 279.819,376.485 261.966,386.86 	"/>
	<polygon style="fill:#40A559;" points="302.585,389.629 302.559,398.344 284.707,408.72 284.732,400.004 	"/>
	<polygon style="fill:#4DBA69;" points="284.732,400.004 284.707,408.72 265.733,397.765 265.758,389.05 	"/>
	<polygon style="fill:#65C27C;" points="265.758,389.05 283.611,378.674 302.585,389.629 284.732,400.004 	"/>
	<polygon style="fill:#40A559;" points="325.35,402.772 325.325,411.487 307.473,421.863 307.497,413.148 	"/>
	<polygon style="fill:#4DBA69;" points="307.497,413.148 307.473,421.863 288.498,410.909 288.524,402.193 	"/>
	<polygon style="fill:#65C27C;" points="288.524,402.193 306.376,391.818 325.35,402.772 307.497,413.148 	"/>
	<polygon style="fill:#40A559;" points="348.115,415.916 348.091,424.631 330.237,435.007 330.262,426.291 	"/>
	<polygon style="fill:#4DBA69;" points="330.262,426.291 330.237,435.007 311.264,424.052 311.289,415.337 	"/>
	<polygon style="fill:#65C27C;" points="311.289,415.337 329.142,404.962 348.115,415.916 330.262,426.291 	"/>
</g>
<g>
	<polygon style="fill:#A50020;" points="233.563,50.825 217.679,41.595 182.401,94.852 182.401,110.345 198.284,119.575 
		233.563,99.153 	"/>
	<polygon style="fill:#A50020;" points="198.284,119.575 182.401,110.345 182.401,94.852 198.284,104.082 	"/>
</g>
<polygon style="fill:#C60024;" points="198.284,104.082 182.401,94.852 217.679,41.595 233.563,50.825 "/>
<polygon style="fill:#A50020;" points="233.563,50.825 233.563,99.153 198.284,119.575 198.284,104.082 "/>
<polygon style="fill:#FEDA44;" points="249.446,60.056 233.563,50.825 198.284,104.082 198.284,119.575 214.168,128.806 
	249.446,108.384 "/>
<polygon style="fill:#FFDE56;" points="214.168,128.806 198.284,119.575 198.284,104.082 214.168,113.312 "/>
<polygon style="fill:#FFEB9A;" points="214.168,113.312 198.284,104.082 233.563,50.825 249.446,60.056 "/>
<polygon style="fill:#FEDA44;" points="249.446,60.056 249.446,108.384 214.168,128.806 214.168,113.312 "/>
<g>
	<polygon style="fill:#A50020;" points="265.209,69.285 249.327,60.056 214.047,113.312 214.047,128.806 229.931,138.036 
		265.209,117.614 	"/>
	<polygon style="fill:#A50020;" points="229.931,138.036 214.047,128.806 214.047,113.312 229.931,122.543 	"/>
</g>
<polygon style="fill:#C60024;" points="229.931,122.543 214.047,113.312 249.326,60.056 265.209,69.285 "/>
<polygon style="fill:#A50020;" points="265.209,69.285 265.209,117.614 229.931,138.036 229.931,122.543 "/>
<polygon style="fill:#FEDA44;" points="281.092,78.516 265.209,69.285 229.931,122.543 229.931,138.036 245.814,147.267 
	281.092,126.845 "/>
<polygon style="fill:#FFDE56;" points="245.814,147.267 229.931,138.036 229.931,122.543 245.814,131.773 "/>
<polygon style="fill:#FFEB9A;" points="245.814,131.773 229.931,122.543 265.209,69.285 281.092,78.516 "/>
<polygon style="fill:#FEDA44;" points="281.092,78.516 281.092,126.845 245.814,147.267 245.814,131.773 "/>
<g>
	<polygon style="fill:#A50020;" points="296.855,87.746 280.973,78.516 245.694,131.773 245.694,147.267 261.577,156.496 
		296.855,136.075 	"/>
	<polygon style="fill:#A50020;" points="261.577,156.496 245.694,147.267 245.694,131.773 261.577,141.003 	"/>
</g>
<polygon style="fill:#C60024;" points="261.577,141.003 245.694,131.773 280.973,78.516 296.855,87.746 "/>
<polygon style="fill:#A50020;" points="296.855,87.746 296.855,136.075 261.577,156.496 261.577,141.003 "/>
<polygon style="fill:#FEDA44;" points="312.739,96.977 296.855,87.746 261.577,141.003 261.577,156.496 277.46,165.727 
	312.739,145.305 "/>
<polygon style="fill:#FFDE56;" points="277.46,165.727 261.577,156.496 261.577,141.003 277.46,150.233 "/>
<polygon style="fill:#FFEB9A;" points="277.46,150.233 261.577,141.003 296.855,87.746 312.739,96.977 "/>
<polygon style="fill:#FEDA44;" points="312.739,96.977 312.739,145.305 277.46,165.727 277.46,150.233 "/>
<g>
	<polygon style="fill:#A50020;" points="328.502,106.207 312.62,96.977 277.34,150.233 277.34,165.727 293.223,174.957 
		328.502,154.535 	"/>
	<polygon style="fill:#A50020;" points="293.223,174.957 277.34,165.727 277.34,150.233 293.223,159.464 	"/>
</g>
<polygon style="fill:#C60024;" points="293.223,159.464 277.34,150.233 312.62,96.977 328.502,106.207 "/>
<polygon style="fill:#A50020;" points="328.502,106.207 328.502,154.535 293.223,174.957 293.223,159.464 "/>
<polygon style="fill:#FEDA44;" points="344.385,115.437 328.502,106.207 293.223,159.464 293.223,174.957 309.107,184.188 
	344.385,163.766 "/>
<polygon style="fill:#FFDE56;" points="309.107,184.188 293.223,174.957 293.223,159.464 309.107,168.694 "/>
<polygon style="fill:#FFEB9A;" points="309.107,168.694 293.223,159.464 328.502,106.207 344.385,115.437 "/>
<polygon style="fill:#FEDA44;" points="344.385,115.437 344.385,163.766 309.107,184.188 309.107,168.694 "/>
<g>
	<polygon style="fill:#A50020;" points="360.159,124.667 344.275,115.437 308.997,168.694 308.997,184.188 324.88,193.417 
		360.159,172.996 	"/>
	<polygon style="fill:#A50020;" points="324.88,193.417 308.997,184.188 308.997,168.694 324.88,177.924 	"/>
</g>
<polygon style="fill:#C60024;" points="324.88,177.924 308.997,168.694 344.275,115.437 360.159,124.667 "/>
<polygon style="fill:#A50020;" points="360.159,124.667 360.159,172.996 324.88,193.417 324.88,177.924 "/>
<polygon style="fill:#FEDA44;" points="376.042,133.898 360.159,124.667 324.88,177.924 324.88,193.417 340.764,202.648 
	376.042,182.226 "/>
<polygon style="fill:#FFDE56;" points="340.764,202.648 324.88,193.417 324.88,177.924 340.764,187.154 "/>
<polygon style="fill:#FFEB9A;" points="340.764,187.154 324.88,177.924 360.159,124.667 376.042,133.898 "/>
<polygon style="fill:#FEDA44;" points="376.042,133.898 376.042,182.226 340.764,202.648 340.764,187.154 "/>
<g>
	<polygon style="fill:#A50020;" points="391.815,143.128 375.932,133.898 340.654,187.154 340.654,202.648 356.537,211.878 
		391.815,191.456 	"/>
	<polygon style="fill:#A50020;" points="356.537,211.878 340.654,202.648 340.654,187.154 356.537,196.385 	"/>
</g>
<polygon style="fill:#C60024;" points="356.537,196.385 340.654,187.154 375.932,133.898 391.815,143.128 "/>
<polygon style="fill:#A50020;" points="391.815,143.128 391.815,191.456 356.537,211.878 356.537,196.385 "/>
<polygon style="fill:#FEDA44;" points="407.699,152.358 391.815,143.128 356.537,196.385 356.537,211.878 372.42,221.109 
	407.699,200.686 "/>
<polygon style="fill:#FFDE56;" points="372.42,221.109 356.537,211.878 356.537,196.385 372.42,205.615 "/>
<polygon style="fill:#FFEB9A;" points="372.42,205.615 356.537,196.385 391.815,143.128 407.699,152.358 "/>
<polygon style="fill:#FEDA44;" points="407.699,152.358 407.699,200.686 372.42,221.109 372.42,205.615 "/>
<g>
	<polygon style="fill:#A50020;" points="423.472,161.588 407.589,152.358 372.311,205.615 372.311,221.109 388.193,230.338 
		423.472,209.917 	"/>
	<polygon style="fill:#A50020;" points="388.193,230.338 372.311,221.109 372.311,205.615 388.193,214.846 	"/>
</g>
<polygon style="fill:#C60024;" points="388.193,214.846 372.311,205.615 407.589,152.358 423.472,161.588 "/>
<polygon style="fill:#A50020;" points="423.472,161.588 423.472,209.917 388.193,230.338 388.193,214.846 "/>
<polygon style="fill:#FEDA44;" points="439.356,170.819 423.472,161.588 388.193,214.846 388.193,230.338 404.076,239.569 
	439.356,219.147 "/>
<polygon style="fill:#FFDE56;" points="404.076,239.569 388.193,230.338 388.193,214.846 404.076,224.075 "/>
<polygon style="fill:#FFEB9A;" points="404.076,224.075 388.193,214.846 423.472,161.588 439.356,170.819 "/>
<polygon style="fill:#FEDA44;" points="439.356,170.819 439.356,219.147 404.076,239.569 404.076,224.075 "/>
<g>
	<polygon style="fill:#A50020;" points="455.129,180.049 439.246,170.819 403.966,224.075 403.966,239.569 419.85,248.799 
		455.129,228.377 	"/>
	<polygon style="fill:#A50020;" points="419.85,248.799 403.966,239.569 403.966,224.075 419.85,233.306 	"/>
</g>
<polygon style="fill:#C60024;" points="419.85,233.306 403.966,224.075 439.246,170.819 455.129,180.049 "/>
<polygon style="fill:#A50020;" points="455.129,180.049 455.129,228.377 419.85,248.799 419.85,233.306 "/>
<g>
</g>
<g>
</g>
<g>
</g>
<g>
</g>
<g>
</g>
<g>
</g>
<g>
</g>
<g>
</g>
<g>
</g>
<g>
</g>
<g>
</g>
<g>
</g>
<g>
</g>
<g>
</g>
<g>
</g>
</svg>
