<svg id="Layer_5" enable-background="new 0 0 64 64" height="512" viewBox="0 0 64 64" width="512" xmlns="http://www.w3.org/2000/svg" xmlns:xlink="http://www.w3.org/1999/xlink"><linearGradient id="SVGID_1_" gradientUnits="userSpaceOnUse" x1="32" x2="32" y1="63" y2="1"><stop offset="0" stop-color="#9f2fff"/><stop offset="1" stop-color="#0bb1d3"/></linearGradient><path d="m58 1h-52c-2.757 0-5 2.243-5 5v28c0 2.757 2.243 5 5 5h13v24h32v-24h7c2.757 0 5-2.243 5-5v-28c0-2.757-2.243-5-5-5zm-9 34h-28v-32h28zm-46-1v-28c0-1.654 1.346-3 3-3h2.026c-.635.838-1.026 1.87-1.026 3v28c0 1.13.391 2.162 1.026 3h-2.026c-1.654 0-3-1.346-3-3zm9 3c-1.654 0-3-1.346-3-3v-28c0-1.654 1.346-3 3-3h7v34zm9 24v-24h28v24zm30-58h2v34h-2zm10 31c0 1.654-1.346 3-3 3h-3v-34h3c1.654 0 3 1.346 3 3zm-4-15h2v6h-2zm0-4h2v2h-2zm-42-8h-2c-1.103 0-2 .897-2 2v.586c0 .534.208 1.036.586 1.414l2.414 2.414 2.414-2.414c.378-.378.586-.88.586-1.414v-.586c0-1.103-.897-2-2-2zm0 2.586-1 1-1-1v-.586h2zm0 7.414h-2c-1.103 0-2 .897-2 2v2c0 1.103.897 2 2 2h2c1.103 0 2-.897 2-2v-2c0-1.103-.897-2-2-2zm0 4-2 .001v-2.001h2zm-1 5.586-2.414 2.414c-.378.378-.586.88-.586 1.414v.586c0 1.103.897 2 2 2h2c1.103 0 2-.897 2-2v-.586c0-.534-.208-1.036-.586-1.414zm1 4.414-2 .001v-.587l1-1 1 1zm32 2v-5.727c0-2.371-1.687-4.432-4.01-4.901l-3.54-.712c-.501-.143-.914-.479-1.17-.917.548-.481.999-1.067 1.296-1.743h.424c1.654 0 3-1.346 3-3v-3c0-4.411-3.589-8-8-8s-8 3.589-8 8v3c0 1.654 1.346 3 3 3h.424c.297.677.749 1.263 1.297 1.744-.252.436-.649.768-1.095.897l-3.616.73c-2.323.469-4.01 2.53-4.01 4.901v5.728zm-15-16v-2c0-.486.349-.893.81-.982 1.379.643 2.904.982 4.426.982h.764v2c0 1.654-1.346 3-3 3s-3-1.346-3-3zm8 0v-2c.552 0 1 .449 1 1s-.448 1-1 1zm-11-1c0-.551.448-1 1-1v2c-.552 0-1-.449-1-1zm1.78-3h-.78c-.352 0-.686.072-1 .184v-.184c0-3.309 2.691-6 6-6s6 2.691 6 6v.184c-.314-.112-.648-.184-1-.184h-1-1.764c-1.309 0-2.619-.309-3.789-.895l-.211-.105h-.236c-.883 0-1.67.391-2.22 1zm-5.78 14.273c0-1.422 1.012-2.659 2.406-2.941l3.692-.749c1.013-.289 1.85-.964 2.362-1.851.489.16 1 .268 1.54.268.541 0 1.052-.108 1.541-.268.516.888 1.368 1.567 2.437 1.87l3.616.73c1.394.282 2.406 1.519 2.406 2.941v3.727h-20zm17 25.727c-1.302 0-2.402.839-2.816 2h-16.184v2h16.184c.414 1.161 1.514 2 2.816 2s2.402-.839 2.816-2h2.184v-2h-2.184c-.414-1.161-1.514-2-2.816-2zm0 4c-.552 0-1-.448-1-1s.448-1 1-1 1 .448 1 1-.448 1-1 1zm-12-10c-1.302 0-2.402.839-2.816 2h-4.184v2h4.184c.414 1.161 1.514 2 2.816 2s2.402-.839 2.816-2h14.184v-2h-14.184c-.414-1.161-1.514-2-2.816-2zm0 4c-.552 0-1-.448-1-1s.448-1 1-1 1 .448 1 1-.448 1-1 1zm8-10c-1.302 0-2.402.839-2.816 2h-12.184v2h12.184c.414 1.161 1.514 2 2.816 2s2.402-.839 2.816-2h6.184v-2h-6.184c-.414-1.161-1.514-2-2.816-2zm0 4c-.552 0-1-.448-1-1s.448-1 1-1 1 .448 1 1-.448 1-1 1z" fill="url(#SVGID_1_)"/></svg>